<?xml version="1.0" encoding="utf-8"?>
<svg version="1.1" xmlns="http://www.w3.org/2000/svg" width="430" height="261">
  <path d="M0 0 C1.2953215 -0.01929062 2.59064301 -0.03858124 3.92521667 -0.05845642 C5.34246823 -0.07326612 6.75973095 -0.08703915 8.17700195 -0.09985352 C8.89241465 -0.10642534 9.60782734 -0.11299717 10.3449192 -0.11976814 C14.1342229 -0.1523406 17.9234988 -0.1767928 21.71289062 -0.19628906 C24.83928669 -0.21407436 27.96477601 -0.24885002 31.09082031 -0.29882812 C34.8745292 -0.35924098 38.6574002 -0.3897931 42.44156837 -0.39946175 C43.87804737 -0.40798421 45.31450592 -0.42672314 46.75070763 -0.45620537 C54.43196427 -0.60535523 60.31021081 -0.66031602 66.32600403 4.48472595 C68.92927884 7.68643065 69.80518149 11.25924659 70.7277832 15.20874023 C72.10616271 20.29907158 73.74857583 25.21595038 75.6027832 30.14624023 C75.84641602 30.81075195 76.09004883 31.47526367 76.34106445 32.15991211 C77.62960961 35.60159619 79.03564884 38.88468585 80.73168945 42.14624023 C82.90197434 46.38274816 84.36410338 50.73898682 85.7902832 55.27124023 C87.74025641 61.43308662 87.74025641 61.43308662 90.22387695 67.39233398 C94.90291541 78.14466694 95.19269008 89.8258466 95.16137695 101.34545898 C95.16595174 102.84284193 95.17126111 104.34022279 95.17726135 105.83760071 C95.18610576 108.94276593 95.18386166 112.04767261 95.17382812 115.15283203 C95.16222159 119.13202333 95.18276908 123.11034246 95.21174526 127.08941936 C95.23005332 130.16662731 95.22982789 133.24362265 95.22410774 136.32087135 C95.22395454 137.78930721 95.22999815 139.25775748 95.24239922 140.72614098 C95.25723923 142.7667594 95.24403855 144.80752399 95.22949219 146.84814453 C95.22932602 148.00726852 95.22915985 149.16639252 95.22898865 150.36064148 C94.7277832 153.20874023 94.7277832 153.20874023 92.96180725 155.08102417 C90.57364766 156.28654653 89.13810644 156.59300117 86.48168945 156.61279297 C85.24020142 156.63181923 85.24020142 156.63181923 83.97363281 156.65122986 C82.64537476 156.6468264 82.64537476 156.6468264 81.2902832 156.64233398 C80.3731958 156.64757584 79.4561084 156.65281769 78.51123047 156.65821838 C76.57463594 156.66463429 74.63800242 156.66330717 72.70141602 156.65478516 C69.73814601 156.64627001 66.77680056 156.67505037 63.8137207 156.70678711 C61.93090878 156.70839911 60.04809345 156.70782162 58.1652832 156.70483398 C57.27977783 156.71606796 56.39427246 156.72730194 55.48193359 156.73887634 C51.75015406 156.69657915 49.4012691 156.61348552 46.16235352 154.66699219 C44.17599043 151.26319881 44.22743293 148.20717605 44.3371582 144.38061523 C44.34118652 143.71626465 44.34521484 143.05191406 44.34936523 142.36743164 C44.37021496 139.89758488 44.42606097 137.42813339 44.4777832 134.95874023 C44.5602832 129.43124023 44.6427832 123.90374023 44.7277832 118.20874023 C32.5177832 118.20874023 20.3077832 118.20874023 7.7277832 118.20874023 C7.88599081 129.59254393 7.88599081 129.59254393 8.08813477 140.97558594 C8.09981806 142.40355231 8.11001073 143.831532 8.1184082 145.25952148 C8.149104 146.37006897 8.149104 146.37006897 8.18041992 147.50305176 C8.18250527 150.56694608 8.12618906 152.66605266 6.28173828 155.1784668 C2.37324436 156.75516542 -1.3479889 156.65648481 -5.52612305 156.64233398 C-6.42338608 156.64757584 -7.32064911 156.65281769 -8.24510193 156.65821838 C-10.13881394 156.664633 -12.03256583 156.66330883 -13.92626953 156.65478516 C-16.82810998 156.64625964 -19.7279919 156.6750684 -22.62963867 156.70678711 C-24.47013287 156.70839881 -26.31063057 156.70782218 -28.15112305 156.70483398 C-29.01991592 156.71606796 -29.8887088 156.72730194 -30.78382874 156.73887634 C-31.59154221 156.72949539 -32.39925568 156.72011444 -33.23144531 156.71044922 C-33.94107925 156.71028305 -34.6507132 156.71011688 -35.3818512 156.70994568 C-37.2722168 156.20874023 -37.2722168 156.20874023 -39.00050354 154.58874512 C-40.67380696 151.45716629 -40.6532112 149.17424366 -40.66040039 145.62695312 C-40.66565735 144.97425446 -40.67091431 144.32155579 -40.67633057 143.64907837 C-40.68952086 141.4929399 -40.68078737 139.33754243 -40.6706543 137.18139648 C-40.67267752 135.67125813 -40.67559102 134.16112074 -40.67935181 132.65098572 C-40.68377566 129.48093391 -40.67735047 126.31113559 -40.66333008 123.14111328 C-40.64636965 119.11341535 -40.65599431 115.08632305 -40.67404747 111.05864811 C-40.6849971 107.93470375 -40.68138617 104.81089779 -40.67366409 101.68694878 C-40.67168587 100.2044613 -40.67403606 98.72196056 -40.68110275 97.2394886 C-40.72677624 84.94859873 -39.09709723 73.96535227 -34.24487305 62.61889648 C-33.22675907 60.0961 -32.45427648 57.57444468 -31.7097168 54.95874023 C-30.60526088 51.11115196 -29.09673174 47.77844338 -27.2722168 44.20874023 C-26.50762414 41.89136372 -25.88681194 39.57256772 -25.2722168 37.20874023 C-24.6122168 37.20874023 -23.9522168 37.20874023 -23.2722168 37.20874023 C-23.17424805 36.4469043 -23.0762793 35.68506836 -22.9753418 34.90014648 C-22.12351437 29.01813126 -21.03354357 23.91511865 -18.4128418 18.57592773 C-16.56680212 14.74476319 -15.07688196 10.76549707 -13.51831055 6.81030273 C-12.32683247 4.32276543 -11.41906959 2.90218646 -9.2722168 1.20874023 C-5.97780986 0.11060459 -3.47011565 0.04825621 0 0 Z " transform="translate(186.272216796875,3.791259765625)" style="fill: rgb(255, 255, 255);"/>
  <path d="M0 0 C1.21945313 -0.020625 2.43890625 -0.04125 3.6953125 -0.0625 C4.87609375 -0.06765625 6.056875 -0.0728125 7.2734375 -0.078125 C8.34770996 -0.0874707 9.42198242 -0.09681641 10.52880859 -0.10644531 C16.62982773 0.59592718 20.52853868 3.55442595 24.25390625 8.1796875 C26.73548167 11.92679568 28.1008101 16.04638102 29.625 20.25 C30.3843574 22.12967693 31.15580026 24.0045042 31.9375 25.875 C32.35386719 26.87402344 32.77023438 27.87304688 33.19921875 28.90234375 C34.54472655 32.06152234 35.92722095 35.20138004 37.32055664 38.33959961 C43.09514352 51.37375381 45.78985046 61.97079175 45.72265625 76.30859375 C45.7212413 77.45288345 45.71982635 78.59717316 45.71836853 79.77613831 C45.71279301 83.41328601 45.70024498 87.05037105 45.6875 90.6875 C45.68248184 93.1608064 45.67791948 95.63411377 45.67382812 98.10742188 C45.6628316 104.15496912 45.64611788 110.20248008 45.625 116.25 C44.635 116.25 43.645 116.25 42.625 116.25 C42.625 104.37 42.625 92.49 42.625 80.25 C15.235 80.25 -12.155 80.25 -40.375 80.25 C-40.375 92.13 -40.375 104.01 -40.375 116.25 C-41.365 116.25 -42.355 116.25 -43.375 116.25 C-43.47750837 108.8526613 -43.54692421 101.4555097 -43.59472656 94.05761719 C-43.61468165 91.54778194 -43.64185553 89.0379922 -43.67675781 86.52832031 C-44.11873251 53.9001885 -44.11873251 53.9001885 -36.3125 39.96484375 C-33.92309086 35.5942162 -32.52370515 30.72433718 -31 26 C-24.71560959 7.24401007 -24.71560959 7.24401007 -17.375 1.25 C-11.85832181 -0.58941212 -5.73957712 0.02411587 0 0 Z " transform="translate(212.375,23.75)" style="fill: rgb(255, 255, 255);"/>
  <path d="M0 0 C3.63 -0.103125 7.26 -0.20625 11 -0.3125 C12.69189453 -0.38078003 12.69189453 -0.38078003 14.41796875 -0.45043945 C21.19349328 -0.54301758 25.84579173 0.43046057 31 5 C32.9375 7.6875 32.9375 7.6875 34 10 C34.495 10.99 34.495 10.99 35 12 C35.67909124 19.39239322 36.02257549 26.03374287 31.77734375 32.3515625 C25.24224705 38.41268515 19.64206452 38.52477951 11.0625 38.25 C7.411875 38.1675 3.76125 38.085 0 38 C0 25.46 0 12.92 0 0 Z " transform="translate(304,210)" style="fill: rgb(255, 255, 255);"/>
  <path d="M0 0 C1.21945313 -0.020625 2.43890625 -0.04125 3.6953125 -0.0625 C4.87609375 -0.06765625 6.056875 -0.0728125 7.2734375 -0.078125 C8.34770996 -0.0874707 9.42198242 -0.09681641 10.52880859 -0.10644531 C16.62982773 0.59592718 20.52853868 3.55442595 24.25390625 8.1796875 C26.73548167 11.92679568 28.1008101 16.04638102 29.625 20.25 C30.3843574 22.12967693 31.15580026 24.0045042 31.9375 25.875 C32.35386719 26.87402344 32.77023438 27.87304688 33.19921875 28.90234375 C34.54472655 32.06152234 35.92722095 35.20138004 37.32055664 38.33959961 C43.09514352 51.37375381 45.78985046 61.97079175 45.72265625 76.30859375 C45.7212413 77.45288345 45.71982635 78.59717316 45.71836853 79.77613831 C45.71279301 83.41328601 45.70024498 87.05037105 45.6875 90.6875 C45.68248184 93.1608064 45.67791948 95.63411377 45.67382812 98.10742188 C45.6628316 104.15496912 45.64611788 110.20248008 45.625 116.25 C44.635 116.25 43.645 116.25 42.625 116.25 C42.625 104.37 42.625 92.49 42.625 80.25 C15.235 80.25 -12.155 80.25 -40.375 80.25 C-40.375 92.13 -40.375 104.01 -40.375 116.25 C-41.365 116.25 -42.355 116.25 -43.375 116.25 C-43.47750837 108.8526613 -43.54692421 101.4555097 -43.59472656 94.05761719 C-43.61468165 91.54778194 -43.64185553 89.0379922 -43.67675781 86.52832031 C-44.11873251 53.9001885 -44.11873251 53.9001885 -36.3125 39.96484375 C-33.92309086 35.5942162 -32.52370515 30.72433718 -31 26 C-24.71560959 7.24401007 -24.71560959 7.24401007 -17.375 1.25 C-11.85832181 -0.58941212 -5.73957712 0.02411587 0 0 Z M-21.375 8.25 C-22.90628141 11.05736122 -22.90628141 11.05736122 -24 14.0625 C-24.41121094 15.11695313 -24.82242188 16.17140625 -25.24609375 17.2578125 C-25.61863281 18.24523438 -25.99117187 19.23265625 -26.375 20.25 C-26.67535156 20.98992188 -26.97570312 21.72984375 -27.28515625 22.4921875 C-29.20787481 27.30381486 -30.37574371 32.17142684 -31.375 37.25 C-32.035 37.25 -32.695 37.25 -33.375 37.25 C-33.88012244 38.85256108 -34.37891627 40.45711792 -34.875 42.0625 C-35.1534375 42.95582031 -35.431875 43.84914062 -35.71875 44.76953125 C-36.50288351 47.30573395 -36.50288351 47.30573395 -36.375 50.25 C-37.035 50.25 -37.695 50.25 -38.375 50.25 C-41.32918442 59.69283948 -41.375 66.92156405 -41.375 77.25 C-13.655 77.25 14.065 77.25 42.625 77.25 C43.11611827 61.03568995 43.11611827 61.03568995 38.625 47.25 C38.02845594 45.69249584 37.44387924 44.13032028 36.875 42.5625 C36.4625 41.469375 36.05 40.37625 35.625 39.25 C34.965 39.25 34.305 39.25 33.625 39.25 C33.13 35.785 33.13 35.785 32.625 32.25 C31.965 32.25 31.305 32.25 30.625 32.25 C30.46644531 31.57195313 30.30789062 30.89390625 30.14453125 30.1953125 C28.4244509 23.33399749 25.94772929 17.470585 22.625 11.25 C22.109375 10.095 21.59375 8.94 21.0625 7.75 C19.38851826 4.8387274 18.7254005 4.38840577 15.625 3.25 C11.06584914 2.8282609 6.50209281 2.83605553 1.92602539 2.82446289 C-0.30238425 2.81255406 -2.52803273 2.76333848 -4.75585938 2.71289062 C-6.17967406 2.7034265 -7.60350566 2.69619141 -9.02734375 2.69140625 C-10.31632568 2.67795166 -11.60530762 2.66449707 -12.93334961 2.65063477 C-17.25144266 3.40263295 -18.65986725 4.88692725 -21.375 8.25 Z " transform="translate(212.375,23.75)" style=""/>
  <path d="M0 0 C9 0 9 0 11.56640625 2.203125 C12.22511719 3.20859375 12.88382812 4.2140625 13.5625 5.25 C14.2946875 6.3328125 15.026875 7.415625 15.78125 8.53125 C16.14476562 9.09972656 16.50828125 9.66820312 16.8828125 10.25390625 C18.0081873 12.01279624 19.16930201 13.74231146 20.34375 15.46875 C22.25497957 18.29521627 24.13095709 21.14546174 26 24 C26.33 16.08 26.66 8.16 27 0 C29.64 0 32.28 0 35 0 C35 12.54 35 25.08 35 38 C26 38 26 38 23.6171875 35.98046875 C23.04226563 35.05878906 22.46734375 34.13710937 21.875 33.1875 C21.22789062 32.18976563 20.58078125 31.19203125 19.9140625 30.1640625 C18.96660156 28.59785156 18.96660156 28.59785156 18 27 C16.75249147 25.01926197 15.50260598 23.04001838 14.25 21.0625 C13.71890625 20.18722656 13.1878125 19.31195313 12.640625 18.41015625 C10.81307135 15.56422706 10.81307135 15.56422706 7 12 C7 20.58 7 29.16 7 38 C4.69 38 2.38 38 0 38 C0 25.46 0 12.92 0 0 Z " transform="translate(257,210)" style="fill: rgb(255, 255, 255);"/>
  <path d="M0 0 C2.0078125 0.42578125 2.0078125 0.42578125 3.61328125 2.0390625 C5.29565779 4.91842402 6.36168256 7.77081932 7.4453125 10.92578125 C7.87070313 12.16328125 8.29609375 13.40078125 8.734375 14.67578125 C9.36472656 16.53203125 9.36472656 16.53203125 10.0078125 18.42578125 C10.40742188 19.53953125 10.80703125 20.65328125 11.21875 21.80078125 C11.58226562 22.83203125 11.94578125 23.86328125 12.3203125 24.92578125 C12.80951172 26.3025 12.80951172 26.3025 13.30859375 27.70703125 C14.0078125 30.42578125 14.0078125 30.42578125 14.0078125 36.42578125 C3.7778125 36.42578125 -6.4521875 36.42578125 -16.9921875 36.42578125 C-15.86697698 26.29888654 -15.86697698 26.29888654 -14.6875 22.890625 C-14.43355469 22.14361328 -14.17960938 21.39660156 -13.91796875 20.62695312 C-13.52158203 19.50643555 -13.52158203 19.50643555 -13.1171875 18.36328125 C-12.86066406 17.61240234 -12.60414063 16.86152344 -12.33984375 16.08789062 C-6.9333323 0.37097165 -6.9333323 0.37097165 0 0 Z " transform="translate(213.9921875,45.57421875)" style=""/>
  <path d="M0 0 C2.97 0 5.94 0 9 0 C9.23074219 0.58265625 9.46148437 1.1653125 9.69921875 1.765625 C13.56380363 11.48054983 17.47801571 21.13515206 22.08203125 30.52734375 C23.07020356 33.18910151 23.17627122 35.18469673 23 38 C20.69 38 18.38 38 16 38 C15.34 36.02 14.68 34.04 14 32 C8.06 31.67 2.12 31.34 -4 31 C-4.66 33.31 -5.32 35.62 -6 38 C-8.31 38 -10.62 38 -13 38 C-12.67940546 31.4812444 -11.24538464 26.82745825 -8.40234375 20.9765625 C-6.39801119 16.72224101 -4.77200744 12.34336826 -3.11328125 7.9453125 C-2.10702403 5.28314429 -1.06616776 2.63864349 0 0 Z " transform="translate(203,210)" style="fill: rgb(255, 255, 255);"/>
  <path d="M0 0 C1.21816406 0.03480469 1.21816406 0.03480469 2.4609375 0.0703125 C3.68683594 0.09738281 3.68683594 0.09738281 4.9375 0.125 C5.87722656 0.15980469 5.87722656 0.15980469 6.8359375 0.1953125 C7.22265625 1.16210938 7.609375 2.12890625 8.0078125 3.125 C8.38329224 4.06351807 8.38329224 4.06351807 8.76635742 5.02099609 C9.31633557 6.3961872 9.86597316 7.77151455 10.4152832 9.14697266 C11.60904553 12.13506185 12.80587006 15.12148354 14.01953125 18.1015625 C19.8359375 32.40494285 19.8359375 32.40494285 19.8359375 38.1953125 C17.5259375 38.1953125 15.2159375 38.1953125 12.8359375 38.1953125 C12.1759375 36.2153125 11.5159375 34.2353125 10.8359375 32.1953125 C4.8959375 31.8653125 -1.0440625 31.5353125 -7.1640625 31.1953125 C-7.4940625 33.5053125 -7.8240625 35.8153125 -8.1640625 38.1953125 C-10.1440625 38.1953125 -12.1240625 38.1953125 -14.1640625 38.1953125 C-14.533083 28.78528972 -14.533083 28.78528972 -12.1640625 24.1953125 C-11.5040625 24.1953125 -10.8440625 24.1953125 -10.1640625 24.1953125 C-10.04933594 23.37546875 -9.93460938 22.555625 -9.81640625 21.7109375 C-9.06741075 17.67443482 -7.95524074 13.85702283 -6.7265625 9.9453125 C-6.40075195 8.86636719 -6.40075195 8.86636719 -6.06835938 7.765625 C-3.75265694 0.33868745 -3.75265694 0.33868745 0 0 Z " transform="translate(14.1640625,209.8046875)" style="fill: rgb(255, 255, 255);"/>
  <path d="M0 0 C9.57 0 19.14 0 29 0 C29 2.31 29 4.62 29 7 C21.74 7 14.48 7 7 7 C7 9.97 7 12.94 7 16 C12.28 16 17.56 16 23 16 C23 17.98 23 19.96 23 22 C17.72 22 12.44 22 7 22 C7 24.97 7 27.94 7 31 C14.26 31 21.52 31 29 31 C29 33.31 29 35.62 29 38 C19.43 38 9.86 38 0 38 C0 25.46 0 12.92 0 0 Z " transform="translate(351,210)" style="fill: rgb(255, 255, 255);"/>
  <path d="M0 0 C2.31 0 4.62 0 7 0 C7 5.61 7 11.22 7 17 C8.65 15.35 10.3 13.7 12 12 C12.87140625 11.14019531 13.7428125 10.28039062 14.640625 9.39453125 C15.50171875 8.54246094 16.3628125 7.69039062 17.25 6.8125 C18.12140625 5.95269531 18.9928125 5.09289062 19.890625 4.20703125 C22.02994238 2.18568934 22.02994238 2.18568934 23 0 C25.97 0 28.94 0 32 0 C30.35856675 3.28286651 29.65675378 4.57588408 27.14453125 6.875 C26.60505859 7.38546875 26.06558594 7.8959375 25.50976562 8.421875 C24.37195513 9.47981618 23.22863648 10.53186214 22.08007812 11.578125 C20.24353261 13.27578552 20.24353261 13.27578552 18 16 C18.22844586 19.64687661 20.03805993 21.37016954 22.59765625 23.8203125 C23.31630859 24.52027344 24.03496094 25.22023437 24.77539062 25.94140625 C25.90750977 27.02228516 25.90750977 27.02228516 27.0625 28.125 C28.55776514 29.56055616 30.04888944 31.00044216 31.53515625 32.4453125 C32.199104 33.07969238 32.86305176 33.71407227 33.54711914 34.36767578 C35 36 35 36 35 38 C31.45525777 38.5626575 29.41617995 38.85662518 26 38 C22.50980844 35.04164715 19.8324294 31.5743851 17 28 C15.68609496 26.64751743 14.35903979 25.30712142 13 24 C10.3094472 25.22007944 10.3094472 25.22007944 8 27 C7.76636119 28.84891946 7.58696365 30.70488031 7.4375 32.5625 C7.35371094 33.57441406 7.26992187 34.58632812 7.18359375 35.62890625 C7.09271484 36.80259766 7.09271484 36.80259766 7 38 C4.69 38 2.38 38 0 38 C0 25.46 0 12.92 0 0 Z " transform="translate(106,210)" style="fill: rgb(255, 255, 255);"/>
  <path d="M0 0 C2.64 0 5.28 0 8 0 C11.33333333 8.33333333 14.66666667 16.66666667 18 25 C20.25109534 22.20872175 21.71763009 19.60986199 23.0078125 16.26953125 C23.35457031 15.38458984 23.70132813 14.49964844 24.05859375 13.58789062 C24.58646484 12.21407227 24.58646484 12.21407227 25.125 10.8125 C25.83371987 8.98481561 26.54454396 7.15794529 27.2578125 5.33203125 C27.5686377 4.52483643 27.87946289 3.7176416 28.19970703 2.88598633 C29 1 29 1 30 0 C32.33297433 -0.04092937 34.66705225 -0.04241723 37 0 C35.83348574 5.92863717 34.24480642 11.38798394 32 17 C31.34 17 30.68 17 30 17 C29.9071875 18.3303125 29.9071875 18.3303125 29.8125 19.6875 C29.05474 25.17277762 26.96227742 34.03772258 23 38 C21.48071962 38.07179964 19.95832518 38.08392007 18.4375 38.0625 C17.61121094 38.05347656 16.78492187 38.04445312 15.93359375 38.03515625 C15.29550781 38.02355469 14.65742187 38.01195312 14 38 C11.00489001 33.24913587 9.27939821 28.89589239 7.79296875 23.4921875 C7.01335975 21.04198778 6.02805428 18.94800446 4.8125 16.6875 C3.19575384 13.65686936 2.56254108 11.49967133 3 8 C2.34 8 1.68 8 1 8 C0.67 5.36 0.34 2.72 0 0 Z " transform="translate(38,210)" style="fill: rgb(255, 255, 255);"/>
  <path d="M0 0 C2.31 0 4.62 0 7 0 C7.37125 1.051875 7.7425 2.10375 8.125 3.1875 C10.00634232 8.2526524 12.35296662 13.08389832 14.6953125 17.94921875 C15.86393387 20.68183339 16.55497139 23.07475094 17 26 C17.66 26 18.32 26 19 26 C19.2475 25.05125 19.495 24.1025 19.75 23.125 C22.03643744 15.13857062 25.5720709 7.54873749 29 0 C31.64 0 34.28 0 37 0 C36.21163218 3.72182949 34.80814422 7.10728236 33.375 10.625 C30.59493484 17.47738248 27.90905666 24.36292224 25.27294922 31.27197266 C23.10920036 36.89079964 23.10920036 36.89079964 22 38 C19.32941149 38.14115161 16.67567762 38.04247107 14 38 C13.68546875 37.2265625 13.3709375 36.453125 13.046875 35.65625 C10.17353801 28.63700228 10.17353801 28.63700228 6.875 21.8125 C3.34026541 14.91406637 1.51990752 7.56377505 0 0 Z " transform="translate(392,210)" style="fill: rgb(255, 255, 255);"/>
  <path d="M0 0 C2.743125 -0.103125 5.48625 -0.20625 8.3125 -0.3125 C9.17270752 -0.35802002 10.03291504 -0.40354004 10.91918945 -0.45043945 C13.03182377 -0.4890776 14.92880604 -0.42875034 17 0 C20.21203323 3.19960757 20.38536953 6.54364511 20.41015625 10.98046875 C20.39855469 11.68816406 20.38695312 12.39585937 20.375 13.125 C20.38660156 13.84042969 20.39820313 14.55585938 20.41015625 15.29296875 C20.38101781 20.4893237 20.38101781 20.4893237 18.72583008 22.70776367 C16.62349331 24.28191398 15.58853281 24.35162104 12.98828125 24.29296875 C12.30548096 24.28547607 11.62268066 24.2779834 10.91918945 24.27026367 C10.05898193 24.24295166 9.19877441 24.21563965 8.3125 24.1875 C5.569375 24.125625 2.82625 24.06375 0 24 C0 16.08 0 8.16 0 0 Z " transform="translate(311,217)" style=""/>
  <path d="M0 0 C2.64 0 5.28 0 8 0 C8.17439217 4.26820052 8.30067865 8.53446112 8.38452148 12.80517578 C8.41950365 14.25443684 8.46710991 15.70345481 8.52807617 17.15185547 C9.08414941 30.7125659 9.08414941 30.7125659 4.8515625 35.94921875 C2.44815027 38.16068652 1.06914208 38.97863832 -2.09765625 39.95703125 C-11.1052996 39.51792347 -11.1052996 39.51792347 -14.6875 37 C-17.68294495 33.11401736 -17.83582405 30.84319039 -18 26 C-15.36 26 -12.72 26 -10 26 C-10 27.98 -10 29.96 -10 32 C-7.03 31.67 -4.06 31.34 -1 31 C-0.67 20.77 -0.34 10.54 0 0 Z " transform="translate(172,210)" style="fill: rgb(255, 255, 255);"/>
  <path d="M0 0 C2.55936892 2.26294484 3.6916771 4.24881131 4.875 7.4375 C5.21660156 8.33082031 5.55820313 9.22414063 5.91015625 10.14453125 C6.44962891 11.55798828 6.44962891 11.55798828 7 13 C9.46574537 19.07415324 12.03552919 25.09840147 14.69555664 31.08959961 C20.47014352 44.12375381 23.16485046 54.72079175 23.09765625 69.05859375 C23.0962413 70.20288345 23.09482635 71.34717316 23.09336853 72.52613831 C23.08779301 76.16328601 23.07524498 79.80037105 23.0625 83.4375 C23.05748184 85.9108064 23.05291948 88.38411377 23.04882812 90.85742188 C23.0378316 96.90496912 23.02111788 102.95248008 23 109 C22.01 109 21.02 109 20 109 C20 97.12 20 85.24 20 73 C-7.39 73 -34.78 73 -63 73 C-63 84.88 -63 96.76 -63 109 C-63.33 109 -63.66 109 -64 109 C-64 96.79 -64 84.58 -64 72 C-35.95 72 -7.9 72 21 72 C20.67 71.34 20.34 70.68 20 70 C19.90582117 67.8757441 19.81664904 65.75107638 19.76000977 63.62548828 C19.51712759 55.04038011 18.66396521 47.88098178 15 40 C13.70801092 37.02261339 13 35.27302983 13 32 C12.34 32 11.68 32 11 32 C10.505 28.535 10.505 28.535 10 25 C9.34 25 8.68 25 8 25 C5.74630666 19.92918998 3.84643999 14.80597115 2.0625 9.55078125 C1.00051831 7.00124432 -0.25001517 5.12285091 -2 3 C-1 1 -1 1 0 0 Z " transform="translate(235,31)" style=""/>
  <path d="M0 0 C2.64 0 5.28 0 8 0 C8 12.54 8 25.08 8 38 C5.36 38 2.72 38 0 38 C0 25.46 0 12.92 0 0 Z " transform="translate(238,210)" style="fill: rgb(255, 255, 255);"/>
  <path d="M0 0 C2.31 0 4.62 0 7 0 C7 12.54 7 25.08 7 38 C4.69 38 2.38 38 0 38 C0 25.46 0 12.92 0 0 Z " transform="translate(87,210)" style="fill: rgb(255, 255, 255);"/>
  <path d="M0 0 C2.64 0 5.28 0 8 0 C8 12.54 8 25.08 8 38 C5.03 38 2.06 38 -1 38 C-1.33 37.34 -1.66 36.68 -2 36 C0.97 36.33 3.94 36.66 7 37 C7 25.12 7 13.24 7 1 C5.35 1 3.7 1 2 1 C2 9.91 2 18.82 2 28 C0.68 27.34 -0.64 26.68 -2 26 C-2 25.01 -2 24.02 -2 23 C-1.67 23.33 -1.34 23.66 -1 24 C-0.67 16.08 -0.34 8.16 0 0 Z " transform="translate(284,210)" style="fill: rgb(255, 255, 255);"/>
  <path d="M0 0 C0.99 0 1.98 0 3 0 C3.67260351 1.76858691 4.33788395 3.53996016 5 5.3125 C5.37125 6.29863281 5.7425 7.28476563 6.125 8.30078125 C7 11 7 11 7 14 C3.7 14 0.4 14 -3 14 C-2.40380045 9.13103697 -1.43023178 4.67209049 0 0 Z " transform="translate(206,220)" style=""/>
  <path d="M0 0 C2.53454383 1.26727191 2.65453095 2.14247709 3.625 4.75 C3.88539062 5.42546875 4.14578125 6.1009375 4.4140625 6.796875 C5 9 5 9 5 14 C1.7 14 -1.6 14 -5 14 C-4.25948644 11.03794577 -3.45594239 8.20422574 -2.5 5.3125 C-2.2421875 4.52488281 -1.984375 3.73726562 -1.71875 2.92578125 C-1 1 -1 1 0 0 Z " transform="translate(16,220)" style=""/>
  <path d="M0 0 C2.55936892 2.26294484 3.6916771 4.24881131 4.875 7.4375 C6.75947225 12.38786365 8.78258232 17.26468445 10.8515625 22.140625 C12.02443284 25.06083278 13.0343393 28.0055659 14 31 C13.01 31.33 12.02 31.66 11 32 C10.67 29.69 10.34 27.38 10 25 C9.34 25 8.68 25 8 25 C5.74630666 19.92918998 3.84643999 14.80597115 2.0625 9.55078125 C1.00051831 7.00124432 -0.25001517 5.12285091 -2 3 C-1 1 -1 1 0 0 Z " transform="translate(235,31)" style=""/>
  <path d="M0 0 C4.37487331 -0.08738991 8.74952078 -0.140524 13.125 -0.1875 C14.3625 -0.21263672 15.6 -0.23777344 16.875 -0.26367188 C18.07382813 -0.27333984 19.27265625 -0.28300781 20.5078125 -0.29296875 C21.60754395 -0.3086792 22.70727539 -0.32438965 23.84033203 -0.34057617 C28.81028656 0.19512825 32.73955179 2.19614376 36 6 C35.67 6.99 35.34 7.98 35 9 C34.5875 8.38125 34.175 7.7625 33.75 7.125 C31.13690413 3.95195502 29.06929721 3.11273024 24.97558594 2.68115234 C23.24743652 2.634021 23.24743652 2.634021 21.484375 2.5859375 C20.23398438 2.54726563 18.98359375 2.50859375 17.6953125 2.46875 C16.39335937 2.4378125 15.09140625 2.406875 13.75 2.375 C12.43257812 2.33632813 11.11515625 2.29765625 9.7578125 2.2578125 C6.50534839 2.16353818 3.25289004 2.0779325 0 2 C0 1.34 0 0.68 0 0 Z " transform="translate(199,24)" style=""/>
  <path d="M0 0 C0.85271484 0.13921875 0.85271484 0.13921875 1.72265625 0.28125 C1.39265625 0.94125 1.06265625 1.60125 0.72265625 2.28125 C-0.02459717 2.21357422 -0.77185059 2.14589844 -1.54174805 2.07617188 C-4.92575051 2.32985881 -5.73235084 3.14734435 -8.046875 5.5625 C-8.70751953 6.23925781 -9.36816406 6.91601562 -10.04882812 7.61328125 C-11.05913086 8.68642578 -11.05913086 8.68642578 -12.08984375 9.78125 C-12.78271484 10.49667969 -13.47558594 11.21210938 -14.18945312 11.94921875 C-15.89720074 13.71585421 -17.59221063 15.49307487 -19.27734375 17.28125 C-19.93734375 16.95125 -20.59734375 16.62125 -21.27734375 16.28125 C-19.61321557 14.37938923 -17.94688569 12.48053554 -16.265625 10.59375 C-14.266897 8.32694607 -14.266897 8.32694607 -12.5703125 5.96875 C-8.72657299 0.92778016 -6.42038559 -0.60023638 0 0 Z " transform="translate(136.27734375,209.71875)" style="fill: rgb(255, 255, 255);"/>
  <path d="M0 0 C0.66 0 1.32 0 2 0 C1.54901762 1.93922422 1.08894441 3.87633594 0.625 5.8125 C0.36976563 6.89144531 0.11453125 7.97039062 -0.1484375 9.08203125 C-1 12 -1 12 -3 15 C-4.11328125 13.25390625 -4.11328125 13.25390625 -5 11 C-4.35546875 8.96484375 -4.35546875 8.96484375 -3.1875 6.9375 C-1.85769259 4.57289365 -0.86592881 2.59778644 0 0 Z " transform="translate(178,59)" style=""/>
  <path d="M0 0 C0.99 1.485 0.99 1.485 2 3 C2.66 2.67 3.32 2.34 4 2 C4.69699552 3.45381897 5.38233866 4.91322953 6.0625 6.375 C6.63677734 7.59316406 6.63677734 7.59316406 7.22265625 8.8359375 C7.47917969 9.55007812 7.73570312 10.26421875 8 11 C7 13 7 13 5 14 C4.67 11.69 4.34 9.38 4 7 C3.34 7 2.68 7 2 7 C0 4 0 4 0 0 Z " transform="translate(241,49)" style=""/>
  <path d="M0 0 C0.66 0.33 1.32 0.66 2 1 C1.0409375 1.9590625 1.0409375 1.9590625 0.0625 2.9375 C-2.61912635 6.91930882 -2.79498004 10.294792 -3 15 C-3.33 15 -3.66 15 -4 15 C-4.63019694 4.84682713 -4.63019694 4.84682713 -2 1.3125 C-1.34 0.879375 -0.68 0.44625 0 0 Z " transform="translate(117,233)" style="fill: rgb(255, 255, 255);"/>
  <path d="M0 0 C1.41687119 4.25061356 0.19320039 6.71851625 -1 11 C-1.66 11 -2.32 11 -3 11 C-3.33 11.66 -3.66 12.32 -4 13 C-3.40895235 8.15340923 -2.02055843 4.39251833 0 0 Z " transform="translate(174,71)" style=""/>
  <path d="M0 0 C2.79872437 2.52788007 4.45773019 4.20411134 5 8 C4.01 8.33 3.02 8.66 2 9 C1.34 6.03 0.68 3.06 0 0 Z " transform="translate(247,61)" style=""/>
  <path d="M0 0 C2.62901288 1.52206009 4.84365964 2.84365964 7 5 C6.67 5.99 6.34 6.98 6 8 C5.5875 7.38125 5.175 6.7625 4.75 6.125 C2.94426121 3.93231719 1.5909466 3.07211583 -1 2 C-0.67 1.34 -0.34 0.68 0 0 Z " transform="translate(228,25)" style=""/>
</svg>