<?xml version="1.0" encoding="utf-8"?>
<svg height="852" viewBox="-20.21 56.72 333.89 177.33" width="2500" xmlns="http://www.w3.org/2000/svg">
  <g fill="#0d2c40" style="" transform="matrix(1.129925, 0, 0, 1.275588, -18.121352, -38.117913)">
    <path d="m93.09 176.17 20.91 1.54v17.86s-39.07 38.48-96-7.08h19.4l2.15-17.55s22.14 22.47 53.54 5.23z" style="fill: rgb(255, 255, 255);"/>
    <path d="m22.28 93.66s-42.49 39.56-7.7 90.21l19.42 1.85 1.85-18.78s-17.85-29.25 5.21-52.34l-20.68-1.6z" style="fill: rgb(255, 255, 255);"/>
    <path d="m26.9 90.89s53-34.17 93.29 7.08l-17.86-1.23-1.85 20s-20.32-24.62-54.18-5.53l-20.63-.92z" style="fill: rgb(255, 255, 255);"/>
    <path d="m105.1 121.68 1.23-20.63 18.78 1.85 56.65 63.11h-19.39l-1.85 17.55z" style="fill: rgb(255, 255, 255);"/>
  </g>
  <g fill="#02d35f" style="" transform="matrix(1.129925, 0, 0, 1.275588, -18.121352, -38.117913)">
    <path d="m98.33 172.79 71.73-79.13 19.09 1.85-1.23 19.4-70.5 78.5.3-20.32z" style="fill: rgb(255, 255, 255);"/>
    <path d="m172.83 90.81 19.86 1.62-1.38 18.94s29.32-18.71 50.8 1.15l21 .92 1.89-18.44s-32.82-37-92.17-4.19z" style="fill: rgb(255, 255, 255);"/>
    <path d="m245.11 115.52 21 1.23 1.62-18.55s45.95 51.19-3.7 95.21l-20.31-1.41 1.85-21s27.48-30.77-.46-55.48z" style="fill: rgb(255, 255, 255);"/>
    <path d="m186.69 170.94-21.21-1.85-1.19 18.71s37.64 43.41 94.44 8.77l-19.4-1.57 1.85-20.09s-24.71 19.81-54.49-3.97z" style="fill: rgb(255, 255, 255);"/>
  </g>
  <path d="M 223.152 138.679 L 223.152 147.607 C 223.083 147.955 223.049 148.311 223.05 148.666 C 223.049 149.027 223.083 149.386 223.152 149.738 L 223.152 164.127 L 217.231 164.127 L 217.231 138.615 L 223.152 138.679 Z" style="fill: rgb(255, 255, 255);"/>
  <path d="M 228.361 138.679 C 226.41 138.964 224.589 139.931 223.152 141.447 C 221.148 143.202 219.889 145.825 219.683 148.679 C 219.86 151.66 221.114 154.428 223.152 156.333 C 224.411 157.688 226.04 158.52 227.773 158.693 C 233.275 158.846 235.987 153.501 235.987 148.692 C 235.987 143.883 232.621 138.398 228.361 138.679 Z M 226.564 153.106 C 224.877 153.021 223.469 151.627 223.174 149.75 C 223.106 149.399 223.071 149.039 223.072 148.679 C 223.071 148.323 223.106 147.967 223.174 147.621 C 223.469 145.744 224.877 144.349 226.564 144.265 C 229.578 144.583 231.158 148.464 229.408 151.252 C 228.745 152.308 227.706 152.986 226.564 153.106 Z M 247.762 146.294 C 246.903 145.987 243.727 145.427 243.727 144.074 C 243.727 143.309 244.699 143.22 245.174 143.245 C 246.529 143.245 248.564 145.07 249.694 144.724 C 250.699 144.431 251.581 141.498 251.953 140.502 C 249.1 138.664 245.775 137.98 242.53 138.564 C 239.121 139.297 237.098 143.295 238.27 146.983 C 239.705 151.179 244.112 149.534 246.338 152.085 C 247.253 153.157 245.366 153.642 244.745 153.615 C 242.833 153.296 241.006 152.512 239.389 151.319 C 238.835 152.213 237.129 154.343 237.332 155.453 C 237.536 156.562 239.784 157.391 240.722 157.723 C 243.863 158.872 248.711 159.304 251.072 156.077 C 254.021 152.199 251.445 147.646 247.762 146.294 Z M 201.785 131.612 C 192.217 131.612 186.237 143.305 191.02 152.659 C 195.805 162.013 207.764 162.013 212.549 152.659 C 213.64 150.526 214.214 148.107 214.214 145.643 C 214.214 137.894 208.649 131.612 201.785 131.612 Z M 201.785 152.799 C 196.879 152.79 193.822 146.788 196.282 141.997 C 198.743 137.206 204.875 137.217 207.321 142.019 C 207.876 143.11 208.169 144.346 208.169 145.604 C 208.169 149.588 205.302 152.813 201.773 152.799 L 201.785 152.799 Z" style="fill: rgb(255, 255, 255);"/>
  <path d="M 84.069 138.359 L 76.984 138.359 L 84.476 160.478 L 87.708 160.478 L 87.708 151.052 L 84.069 138.359 Z M 91.357 138.398 L 98.442 138.398 L 90.939 160.516 L 87.708 160.516 L 87.708 151.09 L 91.357 138.398 Z M 49.674 135.247 C 47.295 133.382 44.534 132.232 41.651 131.906 C 37.833 131.497 33.742 132.02 30.206 132.02 L 30.206 160.453 L 30.375 160.453 C 31.053 160.542 31.731 160.618 32.42 160.669 C 35.136 160.924 37.867 160.898 40.578 160.593 C 45.764 159.942 49.098 158.042 51.143 155.567 C 52.955 153.264 53.977 150.305 54.024 147.225 L 54.024 146.549 L 54.024 146.191 C 53.98 142.148 52.951 138.079 49.674 135.247 Z M 43.911 152.621 C 41.776 153.972 39.177 153.642 36.827 153.642 L 36.827 138.832 C 39.324 138.832 42.137 138.462 44.329 140.197 C 47.968 143.092 47.832 150.121 43.877 152.621 L 43.911 152.621 Z M 73.877 154.84 C 73.3 154.292 72.567 153.361 71.787 153.208 C 70.544 153.016 68.996 154.905 67.617 155.057 C 65.47 155.3 63.922 153.628 63.097 151.613 L 76.16 151.613 C 76.16 147.531 75.855 143.232 72.77 140.426 C 67.041 135.145 57.64 139.048 56.589 147.378 C 55.459 156.154 61.572 161.818 69.019 160.72 C 70.865 160.426 72.598 159.541 74.013 158.169 C 74.521 157.659 75.267 156.957 74.894 156.129 C 74.628 155.633 74.283 155.196 73.877 154.84 Z M 69.707 147.607 L 63.041 147.607 C 63.515 144.711 66.589 143.48 68.575 145.393 C 69.166 145.962 69.566 146.744 69.707 147.607 Z" style="fill: rgb(255, 255, 255);"/>
</svg>